<svg width="48" height="48" viewBox="0 0 48 48" fill="none" xmlns="http://www.w3.org/2000/svg">
<path fill-rule="evenodd" clip-rule="evenodd" d="M8.91707 36.4062C9.42356 36.4062 9.83415 36.8168 9.83415 37.3233C9.83415 37.4244 9.92865 37.7551 10.6309 38.245C11.2898 38.7047 12.2999 39.1691 13.6223 39.5819C16.2559 40.4039 19.9443 40.9648 24.0488 40.9648C28.1533 40.9648 31.8416 40.4039 34.4753 39.5819C35.7977 39.1691 36.8077 38.7047 37.4666 38.245C38.1689 37.7551 38.2634 37.4244 38.2634 37.3233C38.2634 36.8168 38.674 36.4062 39.1805 36.4062C39.687 36.4062 40.0976 36.8168 40.0976 37.3233C40.0976 38.3618 39.3452 39.1708 38.5161 39.7493C37.6436 40.358 36.4377 40.8908 35.0218 41.3327C32.1788 42.2201 28.3013 42.799 24.0488 42.799C19.7963 42.799 15.9188 42.2201 13.0758 41.3327C11.6599 40.8908 10.454 40.358 9.58147 39.7493C8.75233 39.1708 8 38.3618 8 37.3233C8 36.8168 8.41059 36.4062 8.91707 36.4062Z" fill="white"/>
<path fill-rule="evenodd" clip-rule="evenodd" d="M8.91707 28.584C9.42356 28.584 9.83415 28.9946 9.83415 29.5011C9.83415 29.5852 9.9082 29.8885 10.6032 30.3367C11.2571 30.7583 12.2641 31.1727 13.5903 31.5344C16.2297 32.2542 19.9277 32.7108 24.0488 32.7108C28.1699 32.7108 31.8678 32.2542 34.5072 31.5344C35.8335 31.1727 36.8405 30.7583 37.4944 30.3367C38.1894 29.8885 38.2634 29.5852 38.2634 29.5011C38.2634 28.9946 38.674 28.584 39.1805 28.584C39.687 28.584 40.0976 28.9946 40.0976 29.5011C40.0976 30.5565 39.3248 31.3388 38.4883 31.8781C37.6108 32.444 36.4018 32.9188 34.9898 33.3039C32.1526 34.0777 28.2847 34.545 24.0488 34.545C19.8129 34.545 15.945 34.0777 13.1077 33.3039C11.6957 32.9188 10.4867 32.444 9.60922 31.8781C8.77278 31.3388 8 30.5565 8 29.5011C8 28.9946 8.41059 28.584 8.91707 28.584Z" fill="white"/>
<path fill-rule="evenodd" clip-rule="evenodd" d="M8.91707 21.707C9.42356 21.707 9.83415 22.1176 9.83415 22.6241V26.9127C9.83415 27.4192 9.42356 27.8298 8.91707 27.8298C8.41059 27.8298 8 27.4192 8 26.9127V22.6241C8 22.1176 8.41059 21.707 8.91707 21.707Z" fill="white"/>
<path fill-rule="evenodd" clip-rule="evenodd" d="M39.1807 21.707C39.6872 21.707 40.0978 22.1176 40.0978 22.6241V26.9127C40.0978 27.4192 39.6872 27.8298 39.1807 27.8298C38.6743 27.8298 38.2637 27.4192 38.2637 26.9127V22.6241C38.2637 22.1176 38.6743 21.707 39.1807 21.707Z" fill="white"/>
<path fill-rule="evenodd" clip-rule="evenodd" d="M8.91707 18.9551C9.42356 18.9551 9.83415 19.3657 9.83415 19.8722C9.83415 19.9563 9.9082 20.2596 10.6032 20.7078C11.2571 21.1294 12.2641 21.5438 13.5903 21.9055C16.2297 22.6253 19.9277 23.0819 24.0488 23.0819C28.1699 23.0819 31.8678 22.6253 34.5072 21.9055C35.8335 21.5438 36.8405 21.1294 37.4944 20.7078C38.1894 20.2596 38.2634 19.9563 38.2634 19.8722C38.2634 19.3657 38.674 18.9551 39.1805 18.9551C39.687 18.9551 40.0976 19.3657 40.0976 19.8722C40.0976 20.9276 39.3248 21.7099 38.4883 22.2492C37.6108 22.815 36.4018 23.2899 34.9898 23.675C32.1526 24.4488 28.2847 24.9161 24.0488 24.9161C19.8129 24.9161 15.945 24.4488 13.1077 23.675C11.6957 23.2899 10.4867 22.815 9.60922 22.2492C8.77278 21.7099 8 20.9276 8 19.8722C8 19.3657 8.41059 18.9551 8.91707 18.9551Z" fill="white"/>
<path fill-rule="evenodd" clip-rule="evenodd" d="M10.6575 9.78971C9.99084 10.2912 9.83415 10.6863 9.83415 10.9309C9.83415 11.1755 9.99084 11.5706 10.6575 12.0721C11.3085 12.5619 12.3088 13.042 13.6271 13.4615C16.2532 14.2971 19.9379 14.8285 24.0488 14.8285C28.1596 14.8285 31.8444 14.2971 34.4705 13.4615C35.7888 13.042 36.789 12.5619 37.4401 12.0721C38.1067 11.5706 38.2634 11.1755 38.2634 10.9309C38.2634 10.6863 38.1067 10.2912 37.4401 9.78971C36.789 9.29996 35.7888 8.81983 34.4705 8.40037C31.8444 7.5648 28.1596 7.03337 24.0488 7.03337C19.9379 7.03337 16.2532 7.5648 13.6271 8.40037C12.3088 8.81983 11.3085 9.29996 10.6575 9.78971ZM13.071 6.65256C15.9215 5.74557 19.8026 5.19922 24.0488 5.19922C28.295 5.19922 32.176 5.74557 35.0266 6.65256C36.4466 7.10438 37.6623 7.66172 38.5427 8.32399C39.4074 8.97451 40.0976 9.84598 40.0976 10.9309C40.0976 12.0159 39.4074 12.8873 38.5427 13.5379C37.6623 14.2001 36.4466 14.7575 35.0266 15.2093C32.176 16.1163 28.295 16.6626 24.0488 16.6626C19.8026 16.6626 15.9215 16.1163 13.071 15.2093C11.651 14.7575 10.4353 14.2001 9.55489 13.5379C8.69015 12.8873 8 12.0159 8 10.9309C8 9.84598 8.69015 8.97451 9.55489 8.32399C10.4353 7.66172 11.651 7.10438 13.071 6.65256Z" fill="white"/>
<path fill-rule="evenodd" clip-rule="evenodd" d="M8.91707 9.80273C9.42356 9.80273 9.83415 10.2133 9.83415 10.7198V37.323C9.83415 37.8294 9.42356 38.24 8.91707 38.24C8.41059 38.24 8 37.8294 8 37.323V10.7198C8 10.2133 8.41059 9.80273 8.91707 9.80273Z" fill="white"/>
<path fill-rule="evenodd" clip-rule="evenodd" d="M39.1807 9.80273C39.6872 9.80273 40.0978 10.2133 40.0978 10.7198V37.323C40.0978 37.8294 39.6872 38.24 39.1807 38.24C38.6743 38.24 38.2637 37.8294 38.2637 37.323V10.7198C38.2637 10.2133 38.6743 9.80273 39.1807 9.80273Z" fill="white"/>
</svg>
