<svg width="46" height="47" viewBox="0 0 46 47" fill="none" xmlns="http://www.w3.org/2000/svg">
<path d="M9.9426 39.1547H8.35742C7.80514 39.1547 7.35742 38.707 7.35742 38.1547V8.375C7.35742 7.82271 7.80514 7.375 8.35742 7.375H38.1371C38.6894 7.375 39.1371 7.82272 39.1371 8.375V10.6395" stroke="white" stroke-width="2" stroke-linecap="round"/>
<path d="M3.58518 32.7797H2C1.44772 32.7797 1 32.332 1 31.7797V2C1 1.44771 1.44772 1 2 1H31.7797C32.332 1 32.7797 1.44772 32.7797 2V4.26454" stroke="white" stroke-width="2" stroke-linecap="round"/>
<rect x="13.2207" y="13.748" width="31.7797" height="31.7797" rx="1" stroke="white" stroke-width="2" stroke-linecap="round"/>
<rect x="17.7188" y="18.1152" width="7.62713" height="7.62713" rx="0.445643" fill="white"/>
</svg>
