<svg width="45" height="45" viewBox="0 0 45 45" fill="none" xmlns="http://www.w3.org/2000/svg">
<path d="M38.4101 38.4097C47.1966 29.6242 47.1966 15.3778 38.4101 6.59026C29.6245 -2.19725 15.3779 -2.19625 6.59031 6.59026C-2.19727 15.3768 -2.19627 29.6222 6.59031 38.4097C15.3769 47.1973 29.6225 47.1963 38.4101 38.4097ZM9.07928 7.83921C16.834 0.0845351 29.4074 0.0845351 37.1611 7.83921C44.9148 15.5939 44.9158 28.1661 37.1611 35.9208C29.4064 43.6755 16.833 43.6755 9.07928 35.9208C1.32553 28.1661 1.32454 15.5929 9.07928 7.83921Z" fill="white"/>
<path d="M13.586 6.55542C6.72134 13.42 6.72134 24.5488 13.586 31.4133C20.4517 38.2789 31.5806 38.2789 38.4453 31.4133C45.3099 24.5488 45.3099 13.42 38.4453 6.55542C31.5806 -0.310141 20.4517 -0.310141 13.587 6.55542H13.586ZM36.4998 30.4396C30.4414 36.4979 20.6202 36.4979 14.5607 30.4396C8.50233 24.3803 8.50233 14.5592 14.5607 8.50087C20.6202 2.44153 30.4414 2.44153 36.4998 8.50087C42.5592 14.5592 42.5592 24.3813 36.4998 30.4396Z" fill="white"/>
<path d="M30.2489 31.6553C34.917 26.9874 34.917 19.4189 30.2489 14.7509C25.5818 10.083 18.012 10.083 13.3448 14.7509C8.67672 19.4189 8.67672 26.9874 13.3448 31.6553C18.013 36.3232 25.5818 36.3232 30.2489 31.6553ZM14.6679 15.415C18.7883 11.2937 25.4675 11.2937 29.5869 15.415C33.7063 19.5352 33.7073 26.214 29.5869 30.3333C25.4665 34.4525 18.7873 34.4535 14.6679 30.3333C10.5485 26.213 10.5475 19.5342 14.6679 15.415Z" fill="white"/>
</svg>
